<svg xmlns="http://www.w3.org/2000/svg" version="1.1" xmlns:xlink="http://www.w3.org/1999/xlink" xmlns:svgjs="http://svgjs.dev/svgjs" width="1440" height="920" preserveAspectRatio="none" viewBox="0 0 1440 920"><g mask="url(&quot;#SvgjsMask1417&quot;)" fill="none"><use xlink:href="#SvgjsG1429" transform="translate(0, 0)" fill="rgba(244, 155, 100, 0.43)"></use><use xlink:href="#SvgjsG1429" transform="translate(0, 380)" fill="rgba(244, 155, 100, 0.43)"></use><use xlink:href="#SvgjsG1429" transform="translate(0, 760)" fill="rgba(244, 155, 100, 0.43)"></use><use xlink:href="#SvgjsG1429" transform="translate(380, 0)" fill="rgba(244, 155, 100, 0.43)"></use><use xlink:href="#SvgjsG1429" transform="translate(380, 380)" fill="rgba(244, 155, 100, 0.43)"></use><use xlink:href="#SvgjsG1429" transform="translate(380, 760)" fill="rgba(244, 155, 100, 0.43)"></use><use xlink:href="#SvgjsG1429" transform="translate(760, 0)" fill="rgba(244, 155, 100, 0.43)"></use><use xlink:href="#SvgjsG1429" transform="translate(760, 380)" fill="rgba(244, 155, 100, 0.43)"></use><use xlink:href="#SvgjsG1429" transform="translate(760, 760)" fill="rgba(244, 155, 100, 0.43)"></use><use xlink:href="#SvgjsG1429" transform="translate(1140, 0)" fill="rgba(244, 155, 100, 0.43)"></use><use xlink:href="#SvgjsG1429" transform="translate(1140, 380)" fill="rgba(244, 155, 100, 0.43)"></use><use xlink:href="#SvgjsG1429" transform="translate(1140, 760)" fill="rgba(244, 155, 100, 0.43)"></use></g><defs><mask id="SvgjsMask1417"><rect width="1440" height="920" fill="#ffffff"></rect></mask><g id="SvgjsG1426"><path d="M8.828 1.361C8.627 0.58 7.913 0 7.069 0 6.062 0 5.248 0.81 5.248 1.815c0 0.17 0.02 0.324 0.063 0.477h0.73c0.054 0.126 0.112 0.198 0.112 0.198a1.216 1.216 0 0 0 0.999 0.522 1.222 1.222 0 0 0 1.223-1.222c0-0.155 0.04-0.295-0.026-0.428h0.48v-0.001z m-0.051 10.853c-0.191 0.195-0.454 0.342-0.752 0.343V8.603l2.737-0.787 0.685 1.351L8.777 12.214z"></path><path d="M6.48 3.166a0.979 0.979 0 0 0-0.735-0.327c-0.311 0-0.59 0.144-0.769 0.37l-2.171 3.318a0.972 0.972 0 0 0-0.139 0.504 0.984 0.984 0 0 0 0.436 0.819l2.914 1.617V12.218A0.705 0.705 0 0 0 6.72 12.924c0.387 0 0.703-0.316 0.703-0.706V8.782s0.093-0.547-0.529-0.847l-1.817-0.95 1.324-2.022 0.703 1.104c0.14 0.222 0.33 0.31 0.502 0.306l1.806-0.006c0.734 0 0.734-0.954 0-0.951H7.949L6.48 3.166z m7.985 4.511c0.029 0.028 0.047 0.064 0.047 0.11 0 0.086-0.074 0.159-0.16 0.159-0.024 0-0.04 0-0.058-0.007-0.312-0.133-0.51-0.216-0.872-0.216-0.241 0-0.536 0.083-0.878 0.362l-0.317-0.626c0.395-0.119 0.72-0.224 1.058-0.224 0.541 0 0.826 0.112 1.178 0.444z"></path><path d="M2.349 8.158l3.058 1.687 0.007 0.677L1.922 8.599c-0.253-0.13-0.593-0.206-0.834-0.207-0.361 0-0.56 0.083-0.87 0.217-0.019 0.007-0.035 0.007-0.058 0.007A0.161 0.161 0 0 1 0 8.458c0-0.047 0.018-0.083 0.047-0.111 0.354-0.332 0.715-0.444 1.256-0.444 0.277 0 0.614 0.032 1.048 0.256z m0.283 6.204c0.996 0 1.803-0.807 1.804-1.805S3.629 10.752 2.632 10.752c-0.996 0-1.803 0.806-1.802 1.805 0 0.997 0.807 1.805 1.803 1.805zM0.031 12.557c0-1.437 1.166-2.605 2.601-2.605 1.44 0 2.605 1.167 2.605 2.605 0 1.437-1.165 2.604-2.605 2.604C1.197 15.161 0.031 13.994 0.031 12.557z m13.364 1.805A1.803 1.803 0 0 0 15.2 12.557 1.804 1.804 0 0 0 13.395 10.752c-0.993 0-1.8 0.807-1.801 1.805 0 0.998 0.807 1.805 1.801 1.805z m-2.6-1.805c0-1.437 1.163-2.605 2.6-2.605C14.832 9.952 16 11.12 16 12.557s-1.168 2.604-2.605 2.603c-1.437 0-2.6-1.166-2.6-2.603z m2.027-2.975L11.558 7.053a0.981 0.981 0 0 0-0.86-0.512h-0.824a0.293 0.293 0 0 0-0.291 0.295c0 0.163 0.13 0.292 0.292 0.292l0.825-0.005c0.14 0 0.295 0.094 0.353 0.23l1.191 2.429 0.58-0.201z"></path></g><g id="SvgjsG1424"><path d="M15.088 16c-0.331 0-0.646-0.076-0.927-0.204a2.26 2.26 0 0 0-0.957-0.216c-0.342 0-0.666 0.08-0.958 0.216A2.25 2.25 0 0 1 11.316 16c-0.331 0-0.646-0.076-0.926-0.204-0.294-0.136-0.616-0.216-0.958-0.216-0.342 0-0.669 0.08-0.958 0.216A2.25 2.25 0 0 1 7.545 16c-0.33 0-0.646-0.076-0.931-0.204a2.244 2.244 0 0 0-0.954-0.216c-0.342 0-0.669 0.08-0.957 0.216A2.246 2.246 0 0 1 3.776 16c-0.331 0-0.646-0.076-0.931-0.204a2.243 2.243 0 0 0-0.954-0.216c-0.342 0-0.669 0.08-0.957 0.216A2.267 2.267 0 0 1 0 16v-1.408c0.331 0 0.65-0.076 0.933-0.206a2.304 2.304 0 0 1 0.958-0.212c0.338 0 0.666 0.078 0.953 0.211a2.239 2.239 0 0 0 0.932 0.205 2.218 2.218 0 0 0 0.926-0.206 2.306 2.306 0 0 1 0.958-0.212c0.338 0 0.666 0.08 0.954 0.212a2.236 2.236 0 0 0 0.93 0.206c0.331 0 0.646-0.076 0.929-0.206 0.288-0.132 0.614-0.212 0.957-0.212s0.663 0.08 0.958 0.212a2.205 2.205 0 0 0 0.927 0.206c0.331 0 0.646-0.076 0.929-0.206 0.292-0.132 0.616-0.212 0.958-0.212 0.34 0 0.667 0.079 0.957 0.212a2.205 2.205 0 0 0 0.928 0.208v1.408zM4.27 9.094c0.702 0 1.274-0.578 1.273-1.289 0-0.71-0.571-1.283-1.273-1.284-0.7 0-1.271 0.573-1.271 1.284s0.573 1.288 1.272 1.288m0.18 4.451c-0.2 0.344-0.638 0.462-0.979 0.256-0.342-0.2-0.458-0.646-0.259-0.99L6.165 7.672a1.175 1.175 0 0 1 0.454-0.459l3.794-2.325L12.988 0.453C13.232 0.021 13.778-0.128 14.205 0.119c0.425 0.251 0.571 0.801 0.327 1.23L11.445 6.664a1.163 1.163 0 0 1-0.456 0.458L6.512 9.936 4.451 13.544z"></path></g><g id="SvgjsG1423"><path d="M14.668 5.394A1.332 1.332 0 0 0 16 4.062c0-0.735-0.596-1.328-1.332-1.328-0.733 0-1.33 0.594-1.331 1.328s0.597 1.332 1.331 1.332zM14.011 14.984a1.353 1.353 0 0 0 1.855-0.472l-0.465-0.279c-0.228 0.384-0.727 0.506-1.109 0.279L0.275 6.282 0 6.752 14.011 14.984z"></path><path d="M8.937 0.301c-0.81-0.544-1.904-0.33-2.45 0.483-0.301 0.444-0.383 1.006-0.236 1.462l0.931 3.05-2.811 0.896a1.085 1.085 0 0 0-0.67 0.877c-0.073 0.594 0.37 0.987 0.964 1.057 0.135 0.016 0.226-0.024 0.352-0.055l3.837-1.269c0.281-0.102 0.589-0.382 0.619-0.626 0.021-0.177 0.078-0.326 0.042-0.432l-0.584-2.086 2.306 1.371 0.279 2c0.024 0.35 0.183 0.601 0.452 0.751L14.984 9.541a0.683 0.683 0 0 0 0.928-0.275c0.183-0.33 0.059-0.75-0.272-0.932l-2.383-1.391-0.275-3.565a1.453 1.453 0 0 0-0.612-1.045L8.938 0.301z"></path></g><g id="SvgjsG1422"><path d="M9.772 3.249c0.894 0 1.621-0.726 1.625-1.624C11.392 0.73 10.666 0.003 9.771 0c-0.898 0.003-1.624 0.73-1.624 1.625 0 0.898 0.726 1.624 1.625 1.624zM6.045 1.946c0.919-0.474 2.204 0.395 2.215 1.347v3.094l1.469 1.626c0.675 0.756-0.393 1.797-1.139 1.042L6.931 7.221c-0.107-0.102-0.185-0.223-0.183-0.504v-1.477l-2.902 1.563v7.863c0.001 1.776-2.405 1.776-2.406 0.017V5.36c0.002-0.519 0.207-1.025 0.72-1.32L6.045 1.946z"></path><path d="M12.066 9.922h2.554V5.274l-5.143-0.009c-0.658 0-0.906 0.745-0.496 1.217l3.084 3.44z m-1.478-4.865a0.205 0.205 0 0 0 0.2-0.2 0.205 0.205 0 0 0-0.2-0.2c-0.111 0.002-0.2 0.09-0.2 0.2s0.089 0.199 0.2 0.2z m0.53 0.034a0.203 0.203 0 0 0 0.2-0.199 0.203 0.203 0 0 0-0.2-0.2 0.203 0.203 0 0 0-0.2 0.2c0.002 0.109 0.09 0.198 0.2 0.199z m0.035-0.59c0.109 0.003 0.197-0.086 0.2-0.192-0.003-0.114-0.091-0.202-0.2-0.2-0.11-0.002-0.199 0.086-0.2 0.2a0.195 0.195 0 0 0 0.2 0.192z m-0.53-0.035c0.109 0.001 0.198-0.088 0.2-0.2-0.002-0.107-0.091-0.196-0.2-0.2-0.11 0.004-0.198 0.093-0.199 0.2 0.001 0.112 0.09 0.201 0.199 0.2z m0.174-0.539c0.113-0.004 0.206-0.098 0.209-0.208-0.002-0.118-0.096-0.211-0.209-0.208-0.117-0.003-0.21 0.09-0.209 0.209-0.002 0.112 0.092 0.205 0.209 0.209z m0.643 0.105c0.116-0.004 0.209-0.098 0.209-0.209 0.001-0.118-0.093-0.211-0.209-0.208-0.114-0.003-0.206 0.09-0.208 0.208 0.002 0.112 0.094 0.205 0.21 0.209z m-0.226-0.54c0.118-0.002 0.216-0.1 0.218-0.216-0.002-0.125-0.099-0.223-0.217-0.227-0.123 0.003-0.221 0.101-0.216 0.226-0.004 0.117 0.094 0.214 0.217 0.216zM11.961 3.84c0.119-0.002 0.217-0.1 0.217-0.217a0.224 0.224 0 0 0-0.217-0.226c-0.123 0.003-0.221 0.101-0.217 0.226-0.003 0.117 0.094 0.215 0.218 0.217z m-0.243-0.538c0.124-0.003 0.222-0.1 0.226-0.218a0.232 0.232 0 0 0-0.226-0.226c-0.117 0.003-0.216 0.101-0.217 0.226a0.224 0.224 0 0 0 0.218 0.218z m0.591 0a0.244 0.244 0 0 0 0.243-0.244c0-0.133-0.108-0.241-0.243-0.243a0.252 0.252 0 0 0-0.243 0.243c0.004 0.134 0.112 0.242 0.243 0.244z m0.191 0.747c0.131-0.002 0.239-0.11 0.243-0.243-0.004-0.133-0.112-0.241-0.243-0.244a0.245 0.245 0 0 0-0.243 0.244 0.245 0.245 0 0 0 0.243 0.243z m0.365-0.461c0.142-0.003 0.255-0.116 0.252-0.252 0.003-0.142-0.109-0.256-0.251-0.259-0.138 0.003-0.251 0.117-0.251 0.261 0.001 0.136 0.114 0.25 0.251 0.253z m0.486 0.487a0.27 0.27 0 0 0 0.27-0.261c-0.003-0.151-0.123-0.27-0.269-0.269-0.147-0.001-0.266 0.118-0.269 0.269 0.003 0.143 0.122 0.262 0.27 0.261zM12.891 4.544a0.268 0.268 0 0 0 0.27-0.261c-0.003-0.15-0.122-0.27-0.27-0.269a0.259 0.259 0 0 0-0.26 0.269c-0.005 0.144 0.114 0.262 0.26 0.261z"></path></g><g id="SvgjsG1418"><path d="M6.309 2.72c-0.666 0-1.202 0.531-1.202 1.186 0 0.656 0.537 1.186 1.202 1.186 0.661 0 1.199-0.53 1.2-1.186 0-0.654-0.538-1.185-1.2-1.186z"></path><path d="M12.402 5.065c-0.045-0.256-0.255-0.401-0.267-0.41L5.075 0 4.42 0.95a0.402 0.402 0 0 0 0.118 0.558 0.399 0.399 0 0 0 0.556-0.114L5.479 0.845l5.734 3.784-4.698 0.845c-0.333 0.056-0.573 0.389-0.499 0.715l1.022 3.952L3.732 15.1c-0.198 0.339-0.078 0.773 0.264 0.967a0.724 0.724 0 0 0 0.981-0.262s3.449-5.186 3.462-5.219 0.178 0.72 0.178 0.724l-0.518 3.89c-0.065 0.387 0.198 0.749 0.589 0.815 0.391 0.065 0.762-0.194 0.827-0.58l0.535-4.002c0.016-0.102-0.005-0.327-0.028-0.426l-1.178-4.686 3.069-0.552a0.609 0.609 0 0 0 0.492-0.704z"></path></g><g id="SvgjsG1421"><path d="M9.232 8.281a0.793 0.793 0 0 0 1.012-0.494c0.144-0.421-0.076-0.877-0.492-1.023-0.415-0.146-0.867 0.076-1.011 0.496-0.141 0.417 0.076 0.876 0.491 1.021z"></path><path d="M15.745 3.046S13.058 2.72 7.478 2.72C3.362 2.72 0 3.046 0 3.046s1.394 0.621 1.152 2.545 2.001-0.241 2.838 1.492l3.758-1.152-0.246 2.535-1.588 0.393a0.805 0.805 0 0 0-0.357 0.19L2.07 12.453c-0.206 0.197-0.21 0.529-0.012 0.734 0.195 0.208 0.523 0.216 0.726 0.019l2.626-2.557 3.213-0.795-0.023 0.006 0.536-0.137 0.491 0.565a0.406 0.406 0 0 0 0.299 0.136l1.731 0.006c0.217 0 0.397-0.179 0.397-0.403 0-0.194-0.133-0.344-0.31-0.388L10.453 5.104 15.824 3.459c0.256-0.112 0.236-0.377-0.079-0.413z m-4.389 6.576c-0.394 0-1.05-0.003-1.249-0.003-0.188-0.216-0.933-1.066-0.933-1.066-0.01-0.016-0.029-0.019-0.039-0.029-0.189-0.223-0.488-0.338-0.787-0.266l-0.466 0.116 0.249-2.56 1.968-0.602 1.257 4.41z"></path></g><g id="SvgjsG1419"><path d="M5.908 3.529A1.008 1.008 0 1 0 5.911 1.511a1.008 1.008 0 0 0-0.003 2.018M0.267 8.521c0-0.818 0.665-1.486 1.484-1.486h3.129V4.788a1.01 1.01 0 0 1 2.02 0v0.348l1.493 0.379a0.487 0.487 0 1 1-0.213 0.947l-1.28-0.298v0.865h1.504l4.106-4.249-0.124 1.106 2.021 1.342c0.334 0.192 0.455 0.622 0.267 0.957a0.693 0.693 0 0 1-0.733 0.343l-0.16-0.03a1.804 1.804 0 0 1-2.233 1.298L10.009 10.933v4.292a0.667 0.667 0 0 1-1.333 0V10.837h-3.378l-0.605 1.035 1.263 3.013c0.185 0.324 0.071 0.729-0.249 0.911a0.67 0.67 0 0 1-0.914-0.253l-1.476-3.477v-1.108l-0.657 1.038v3.229a0.67 0.67 0 0 1-1.337 0V11.495l0.551-0.866V7.705l-0.551 0.841v2.435H0.27V8.521zM13.404 6.436l-1.07-0.207-0.622 1.236a1.426 1.426 0 0 0 1.692-1.031z" fill-rule="evenodd"></path></g><g id="SvgjsG1420"><path d="M13.858 2.933c0.801 0 1.453-0.657 1.452-1.467C15.31 0.655 14.658 0 13.858 0c-0.803 0-1.452 0.655-1.453 1.466 0 0.81 0.65 1.467 1.452 1.467M9.736 15.446h3.748s0.284 0.03 0.284-0.27v-0.298h0.552s0.128 1.025-0.629 1.123H9.736v-0.554zM0.384 12.515L3.037 15.195s0.178 0.222 0.387 0.01l0.211-0.213 0.389 0.397s-0.627 0.818-1.23 0.347L0 12.909l0.384-0.394zM10.618 11.584l0.004 2.656c0 0.499 0.4 0.904 0.895 0.904 0.452 0 0.893-0.528 0.893-0.904V10.544a0.91 0.91 0 0 0-0.278-0.657L9.987 7.725 12.832 4.85c0.535-0.677 0.253-1.486 0.253-1.486-0.294-0.896-1.302-0.928-1.303-0.928l-7.332-0.002c-0.391 0-0.709 0.32-0.708 0.717s0.318 0.717 0.708 0.716l5.062 0.008L7.381 6.021c-0.305 0.317-0.46 0.672-0.46 1.134 0 0.446 0.176 0.845 0.468 1.135L10.618 11.584z"></path><path d="M6.935 8.695a2.084 2.084 0 0 1-0.186-0.216l-4.23 4.288c-0.322 0.26-0.424 0.716-0.234 1.099 0.222 0.437 0.755 0.61 1.187 0.387a1.098 1.098 0 0 0 0.163-0.111l4.344-4.397-1.043-1.051z"></path></g><g id="SvgjsG1428"><path d="M12.73 9.585c-0.323 0-0.633 0.076-0.905 0.204-0.269 0.116-0.567 0.189-0.88 0.189-0.313 0-0.611-0.073-0.881-0.189a2.145 2.145 0 0 0-1.812 0c-0.266 0.116-0.564 0.189-0.877 0.189s-0.611-0.073-0.88-0.189a2.145 2.145 0 0 0-1.811 0c-0.269 0.116-0.567 0.189-0.879 0.189-0.313 0-0.611-0.073-0.881-0.189a2.128 2.128 0 0 0-1.808 0c-0.269 0.116-0.567 0.189-0.88 0.189v1.317c0.313 0 0.611-0.073 0.88-0.19a2.128 2.128 0 0 1 1.808 0c0.227 0.102 0.48 0.16 0.741 0.175l-1.096 1.091a0.899 0.899 0 0 0-1.112 0.125l-1.253 1.254a0.896 0.896 0 0 0 1.265 1.265l1.251-1.254a0.892 0.892 0 0 0 0.16-1.047l1.505-1.505c0.102-0.033 0.204-0.058 0.299-0.102a2.145 2.145 0 0 1 1.811 0c0.268 0.116 0.567 0.189 0.881 0.189s0.611-0.073 0.879-0.189a2.145 2.145 0 0 1 1.81 0c0.271 0.116 0.567 0.189 0.882 0.189 0.311 0 0.611-0.073 0.88-0.189a2.145 2.145 0 0 1 1.811 0c0.268 0.116 0.567 0.189 0.88 0.189V9.978c-0.311 0-0.611-0.073-0.88-0.189-0.276-0.128-0.582-0.204-0.906-0.204M7.508 7.433H7.127l0.767-2.554 1.585 0.586L7.505 7.433z m5.833-4.288l1.251-1.256a0.887 0.887 0 0 0 0-1.265 0.887 0.887 0 0 0-1.263 0l-1.253 1.254a0.892 0.892 0 0 0-0.123 1.108L10.394 4.548l-3.098-1.149a1.28 1.28 0 0 0-1.855 0.742L4.495 7.331a0.454 0.454 0 0 0-0.019 0.102H0.24v1.712c0.23 0 0.468-0.054 0.678-0.146a2.639 2.639 0 0 1 2.199-0.004 1.676 1.676 0 0 0 1.37 0.004 2.604 2.604 0 0 1 2.202-0.004 1.651 1.651 0 0 0 1.371 0.003 2.633 2.633 0 0 1 2.196-0.005 1.673 1.673 0 0 0 1.372 0.005c0.345-0.16 0.727-0.244 1.105-0.245 0.063 0 0.324 0.017 0.579-0.152 0.457-0.199 0.625-0.313 1.024-0.556 0.326-0.201 0.596-0.64-0.116-0.615-0.195 0.007-6.063 0-6.063 0L9.949 5.639l0.243 0.09a0.596 0.596 0 0 0 0.761-0.352 0.593 0.593 0 0 0-0.134-0.608L12.291 3.297c0.337 0.175 0.765 0.131 1.047-0.152z"></path><path d="M7.497 1.725l-0.165 0.349a0.646 0.646 0 0 1-0.576 0.364H6.371a1.212 1.212 0 0 0 2.202-0.691v-0.063h-1.021a0.058 0.058 0 0 0-0.055 0.044"></path><path d="M6.753 2.132a0.335 0.335 0 0 0 0.303-0.189l0.16-0.349c0.061-0.131 0.189-0.221 0.337-0.221h1.251a1.488 1.488 0 1 0-2.875 0.759h0.826z"></path></g><g id="SvgjsG1425"><path d="M11.159 0c-0.758 0-1.375 0.625-1.376 1.392 0 0.772 0.617 1.394 1.376 1.394 0.762 0 1.383-0.622 1.383-1.394C12.541 0.625 11.921 0 11.159 0M0.753 9.609c-0.12-0.195-0.37-0.253-0.56-0.131-0.193 0.119-0.25 0.372-0.131 0.567a0.409 0.409 0 0 0 0.564 0.13 0.415 0.415 0 0 0 0.127-0.566m0.283 1.137c-0.118-0.191-0.368-0.249-0.563-0.127a0.412 0.412 0 0 0-0.126 0.564 0.4 0.4 0 0 0 0.557 0.13 0.415 0.415 0 0 0 0.132-0.567m0.282 1.14c-0.118-0.195-0.375-0.253-0.561-0.132-0.195 0.12-0.25 0.373-0.132 0.567 0.118 0.191 0.374 0.249 0.562 0.129a0.411 0.411 0 0 0 0.131-0.564m0.279 1.138a0.405 0.405 0 0 0-0.558-0.133 0.415 0.415 0 0 0-0.131 0.567c0.118 0.195 0.368 0.253 0.563 0.133 0.187-0.12 0.247-0.374 0.126-0.567M8.213 15.341a0.416 0.416 0 0 0-0.268 0.519c0.072 0.22 0.301 0.336 0.513 0.27a0.42 0.42 0 0 0 0.268-0.519c-0.071-0.217-0.3-0.336-0.514-0.27m1.158 0.009c-0.214 0.065-0.33 0.297-0.262 0.514 0.069 0.22 0.3 0.34 0.512 0.27a0.415 0.415 0 0 0 0.263-0.519c-0.07-0.215-0.296-0.336-0.513-0.265m1.166 0.004a0.409 0.409 0 0 0-0.267 0.518c0.069 0.216 0.298 0.338 0.514 0.266 0.212-0.066 0.333-0.299 0.26-0.52a0.4 0.4 0 0 0-0.507-0.264m1.155 0.004a0.415 0.415 0 0 0-0.261 0.52c0.071 0.214 0.3 0.334 0.512 0.264a0.408 0.408 0 0 0 0.263-0.513 0.409 0.409 0 0 0-0.514-0.27M14.463 6.174h-2.408l-1.108-2.533a0.834 0.834 0 0 0-0.052-0.121c-0.004-0.007-0.008-0.012-0.008-0.016l-0.018-0.046-0.004 0.004c-0.206-0.44-0.636-0.755-1.146-0.775a1.003 1.003 0 0 0-0.279 0.024L3.39 4.147a0.684 0.684 0 0 0-0.508 0.824c0.082 0.371 0.442 0.599 0.808 0.516l4.039-0.971-3.069 5.118H1.375l0.728 2.892c0.025 0.087 0.025 0.106 0.052 0.152 0.103 0.17 0.32 0.224 0.485 0.12 0.09-0.052 0.147-0.145 0.164-0.239l0.435-1.34 0.016-0.055 2.024-0.007c0.403 0 0.748-0.112 0.953-0.454l0.93-1.558 2.072 2.085-0.879 3.496H11.397a0.358 0.358 0 0 0 0.357-0.354c0-0.154-0.095-0.263-0.214-0.329l-1.311-0.733 0.629-2.514s0.157-0.531-0.34-1.021l-1.695-1.716s0.907-1.506 1.488-2.473l0.675 1.548a0.668 0.668 0 0 0 0.251 0.294c0 0.004 0.007 0.004 0.007 0.009 0.107 0.069 0.235 0.112 0.373 0.112h2.832c0.379 0.004 0.682-0.309 0.685-0.685a0.68 0.68 0 0 0-0.672-0.69"></path></g><g id="SvgjsG1427"><path d="M0 1.36l2.539 2.624 0.975-0.885L2.631 1.368z m11.445 7.35c0.48 0.133 0.996-0.141 1.133-0.634 0.131-0.485-0.149-0.995-0.632-1.132l-0.377-0.106-0.487 1.763 0.363 0.109z m-0.295-1.985L8.111 5.859c-0.2-0.052-0.4 0.069-0.456 0.271l-0.285 1.027c-0.056 0.202 0.053 0.409 0.257 0.47l3.039 0.856 0.484-1.757z"></path><path d="M11.63 9.644c-0.232-0.223-0.52-0.4-0.856-0.494L7.09 8.108 4.826 4.048c-0.119-0.21-0.311-0.377-0.56-0.445-0.496-0.141-1.012 0.154-1.148 0.655a0.93 0.93 0 0 0 0.072 0.688l2.832 5.02s0.232 0.377 0.815 0.571l5.149 1.459L14.373 14.446c0.079 0.084 0.183 0.149 0.308 0.185 0.36 0.101 0.736-0.116 0.841-0.476 0.068-0.255-0.013-0.523-0.192-0.688L11.63 9.644z m2.747 1.014l0.535 0.707L16 10.165l-0.918-0.517c0.086-0.651-0.312-1.281-0.953-1.464-0.704-0.197-1.436 0.215-1.631 0.927-0.2 0.716 0.212 1.452 0.916 1.649 0.334 0.097 0.675 0.044 0.963-0.102z"></path></g><g id="SvgjsG1429"><use xlink:href="#SvgjsG1418" transform="translate(0, 0) scale(2)" fill="rgba(244, 155, 100, 0.43)"></use><use xlink:href="#SvgjsG1419" transform="translate(0, 38) scale(2)" fill="rgba(244, 155, 100, 0.43)"></use><use xlink:href="#SvgjsG1420" transform="translate(0, 76) scale(2)" fill="rgba(244, 155, 100, 0.43)"></use><use xlink:href="#SvgjsG1421" transform="translate(0, 114) scale(2)" fill="rgba(244, 155, 100, 0.43)"></use><use xlink:href="#SvgjsG1422" transform="translate(0, 152) scale(2)" fill="rgba(244, 155, 100, 0.43)"></use><use xlink:href="#SvgjsG1423" transform="translate(0, 190) scale(2)" fill="rgba(244, 155, 100, 0.43)"></use><use xlink:href="#SvgjsG1423" transform="translate(0, 228) scale(2)" fill="rgba(244, 155, 100, 0.43)"></use><use xlink:href="#SvgjsG1424" transform="translate(0, 266) scale(2)" fill="rgba(244, 155, 100, 0.43)"></use><use xlink:href="#SvgjsG1425" transform="translate(0, 304) scale(2)" fill="rgba(244, 155, 100, 0.43)"></use><use xlink:href="#SvgjsG1426" transform="translate(0, 342) scale(2)" fill="rgba(244, 155, 100, 0.43)"></use><use xlink:href="#SvgjsG1424" transform="translate(38, 0) scale(2)" fill="rgba(244, 155, 100, 0.43)"></use><use xlink:href="#SvgjsG1419" transform="translate(38, 38) scale(2)" fill="rgba(244, 155, 100, 0.43)"></use><use xlink:href="#SvgjsG1419" transform="translate(38, 76) scale(2)" fill="rgba(244, 155, 100, 0.43)"></use><use xlink:href="#SvgjsG1422" transform="translate(38, 114) scale(2)" fill="rgba(244, 155, 100, 0.43)"></use><use xlink:href="#SvgjsG1424" transform="translate(38, 152) scale(2)" fill="rgba(244, 155, 100, 0.43)"></use><use xlink:href="#SvgjsG1424" transform="translate(38, 190) scale(2)" fill="rgba(244, 155, 100, 0.43)"></use><use xlink:href="#SvgjsG1422" transform="translate(38, 228) scale(2)" fill="rgba(244, 155, 100, 0.43)"></use><use xlink:href="#SvgjsG1427" transform="translate(38, 266) scale(2)" fill="rgba(244, 155, 100, 0.43)"></use><use xlink:href="#SvgjsG1419" transform="translate(38, 304) scale(2)" fill="rgba(244, 155, 100, 0.43)"></use><use xlink:href="#SvgjsG1425" transform="translate(38, 342) scale(2)" fill="rgba(244, 155, 100, 0.43)"></use><use xlink:href="#SvgjsG1423" transform="translate(76, 0) scale(2)" fill="rgba(244, 155, 100, 0.43)"></use><use xlink:href="#SvgjsG1426" transform="translate(76, 38) scale(2)" fill="rgba(244, 155, 100, 0.43)"></use><use xlink:href="#SvgjsG1426" transform="translate(76, 76) scale(2)" fill="rgba(244, 155, 100, 0.43)"></use><use xlink:href="#SvgjsG1428" transform="translate(76, 114) scale(2)" fill="rgba(244, 155, 100, 0.43)"></use><use xlink:href="#SvgjsG1426" transform="translate(76, 152) scale(2)" fill="rgba(244, 155, 100, 0.43)"></use><use xlink:href="#SvgjsG1423" transform="translate(76, 190) scale(2)" fill="rgba(244, 155, 100, 0.43)"></use><use xlink:href="#SvgjsG1424" transform="translate(76, 228) scale(2)" fill="rgba(244, 155, 100, 0.43)"></use><use xlink:href="#SvgjsG1424" transform="translate(76, 266) scale(2)" fill="rgba(244, 155, 100, 0.43)"></use><use xlink:href="#SvgjsG1421" transform="translate(76, 304) scale(2)" fill="rgba(244, 155, 100, 0.43)"></use><use xlink:href="#SvgjsG1424" transform="translate(76, 342) scale(2)" fill="rgba(244, 155, 100, 0.43)"></use><use xlink:href="#SvgjsG1419" transform="translate(114, 0) scale(2)" fill="rgba(244, 155, 100, 0.43)"></use><use xlink:href="#SvgjsG1421" transform="translate(114, 38) scale(2)" fill="rgba(244, 155, 100, 0.43)"></use><use xlink:href="#SvgjsG1421" transform="translate(114, 76) scale(2)" fill="rgba(244, 155, 100, 0.43)"></use><use xlink:href="#SvgjsG1425" transform="translate(114, 114) scale(2)" fill="rgba(244, 155, 100, 0.43)"></use><use xlink:href="#SvgjsG1427" transform="translate(114, 152) scale(2)" fill="rgba(244, 155, 100, 0.43)"></use><use xlink:href="#SvgjsG1419" transform="translate(114, 190) scale(2)" fill="rgba(244, 155, 100, 0.43)"></use><use xlink:href="#SvgjsG1424" transform="translate(114, 228) scale(2)" fill="rgba(244, 155, 100, 0.43)"></use><use xlink:href="#SvgjsG1425" transform="translate(114, 266) scale(2)" fill="rgba(244, 155, 100, 0.43)"></use><use xlink:href="#SvgjsG1422" transform="translate(114, 304) scale(2)" fill="rgba(244, 155, 100, 0.43)"></use><use xlink:href="#SvgjsG1424" transform="translate(114, 342) scale(2)" fill="rgba(244, 155, 100, 0.43)"></use><use xlink:href="#SvgjsG1421" transform="translate(152, 0) scale(2)" fill="rgba(244, 155, 100, 0.43)"></use><use xlink:href="#SvgjsG1421" transform="translate(152, 38) scale(2)" fill="rgba(244, 155, 100, 0.43)"></use><use xlink:href="#SvgjsG1421" transform="translate(152, 76) scale(2)" fill="rgba(244, 155, 100, 0.43)"></use><use xlink:href="#SvgjsG1423" transform="translate(152, 114) scale(2)" fill="rgba(244, 155, 100, 0.43)"></use><use xlink:href="#SvgjsG1420" transform="translate(152, 152) scale(2)" fill="rgba(244, 155, 100, 0.43)"></use><use xlink:href="#SvgjsG1425" transform="translate(152, 190) scale(2)" fill="rgba(244, 155, 100, 0.43)"></use><use xlink:href="#SvgjsG1420" transform="translate(152, 228) scale(2)" fill="rgba(244, 155, 100, 0.43)"></use><use xlink:href="#SvgjsG1426" transform="translate(152, 266) scale(2)" fill="rgba(244, 155, 100, 0.43)"></use><use xlink:href="#SvgjsG1428" transform="translate(152, 304) scale(2)" fill="rgba(244, 155, 100, 0.43)"></use><use xlink:href="#SvgjsG1422" transform="translate(152, 342) scale(2)" fill="rgba(244, 155, 100, 0.43)"></use><use xlink:href="#SvgjsG1418" transform="translate(190, 0) scale(2)" fill="rgba(244, 155, 100, 0.43)"></use><use xlink:href="#SvgjsG1420" transform="translate(190, 38) scale(2)" fill="rgba(244, 155, 100, 0.43)"></use><use xlink:href="#SvgjsG1418" transform="translate(190, 76) scale(2)" fill="rgba(244, 155, 100, 0.43)"></use><use xlink:href="#SvgjsG1423" transform="translate(190, 114) scale(2)" fill="rgba(244, 155, 100, 0.43)"></use><use xlink:href="#SvgjsG1425" transform="translate(190, 152) scale(2)" fill="rgba(244, 155, 100, 0.43)"></use><use xlink:href="#SvgjsG1421" transform="translate(190, 190) scale(2)" fill="rgba(244, 155, 100, 0.43)"></use><use xlink:href="#SvgjsG1418" transform="translate(190, 228) scale(2)" fill="rgba(244, 155, 100, 0.43)"></use><use xlink:href="#SvgjsG1423" transform="translate(190, 266) scale(2)" fill="rgba(244, 155, 100, 0.43)"></use><use xlink:href="#SvgjsG1421" transform="translate(190, 304) scale(2)" fill="rgba(244, 155, 100, 0.43)"></use><use xlink:href="#SvgjsG1421" transform="translate(190, 342) scale(2)" fill="rgba(244, 155, 100, 0.43)"></use><use xlink:href="#SvgjsG1425" transform="translate(228, 0) scale(2)" fill="rgba(244, 155, 100, 0.43)"></use><use xlink:href="#SvgjsG1426" transform="translate(228, 38) scale(2)" fill="rgba(244, 155, 100, 0.43)"></use><use xlink:href="#SvgjsG1427" transform="translate(228, 76) scale(2)" fill="rgba(244, 155, 100, 0.43)"></use><use xlink:href="#SvgjsG1428" transform="translate(228, 114) scale(2)" fill="rgba(244, 155, 100, 0.43)"></use><use xlink:href="#SvgjsG1425" transform="translate(228, 152) scale(2)" fill="rgba(244, 155, 100, 0.43)"></use><use xlink:href="#SvgjsG1426" transform="translate(228, 190) scale(2)" fill="rgba(244, 155, 100, 0.43)"></use><use xlink:href="#SvgjsG1428" transform="translate(228, 228) scale(2)" fill="rgba(244, 155, 100, 0.43)"></use><use xlink:href="#SvgjsG1419" transform="translate(228, 266) scale(2)" fill="rgba(244, 155, 100, 0.43)"></use><use xlink:href="#SvgjsG1420" transform="translate(228, 304) scale(2)" fill="rgba(244, 155, 100, 0.43)"></use><use xlink:href="#SvgjsG1425" transform="translate(228, 342) scale(2)" fill="rgba(244, 155, 100, 0.43)"></use><use xlink:href="#SvgjsG1423" transform="translate(266, 0) scale(2)" fill="rgba(244, 155, 100, 0.43)"></use><use xlink:href="#SvgjsG1418" transform="translate(266, 38) scale(2)" fill="rgba(244, 155, 100, 0.43)"></use><use xlink:href="#SvgjsG1421" transform="translate(266, 76) scale(2)" fill="rgba(244, 155, 100, 0.43)"></use><use xlink:href="#SvgjsG1418" transform="translate(266, 114) scale(2)" fill="rgba(244, 155, 100, 0.43)"></use><use xlink:href="#SvgjsG1422" transform="translate(266, 152) scale(2)" fill="rgba(244, 155, 100, 0.43)"></use><use xlink:href="#SvgjsG1420" transform="translate(266, 190) scale(2)" fill="rgba(244, 155, 100, 0.43)"></use><use xlink:href="#SvgjsG1419" transform="translate(266, 228) scale(2)" fill="rgba(244, 155, 100, 0.43)"></use><use xlink:href="#SvgjsG1420" transform="translate(266, 266) scale(2)" fill="rgba(244, 155, 100, 0.43)"></use><use xlink:href="#SvgjsG1419" transform="translate(266, 304) scale(2)" fill="rgba(244, 155, 100, 0.43)"></use><use xlink:href="#SvgjsG1427" transform="translate(266, 342) scale(2)" fill="rgba(244, 155, 100, 0.43)"></use><use xlink:href="#SvgjsG1425" transform="translate(304, 0) scale(2)" fill="rgba(244, 155, 100, 0.43)"></use><use xlink:href="#SvgjsG1425" transform="translate(304, 38) scale(2)" fill="rgba(244, 155, 100, 0.43)"></use><use xlink:href="#SvgjsG1422" transform="translate(304, 76) scale(2)" fill="rgba(244, 155, 100, 0.43)"></use><use xlink:href="#SvgjsG1420" transform="translate(304, 114) scale(2)" fill="rgba(244, 155, 100, 0.43)"></use><use xlink:href="#SvgjsG1419" transform="translate(304, 152) scale(2)" fill="rgba(244, 155, 100, 0.43)"></use><use xlink:href="#SvgjsG1428" transform="translate(304, 190) scale(2)" fill="rgba(244, 155, 100, 0.43)"></use><use xlink:href="#SvgjsG1426" transform="translate(304, 228) scale(2)" fill="rgba(244, 155, 100, 0.43)"></use><use xlink:href="#SvgjsG1427" transform="translate(304, 266) scale(2)" fill="rgba(244, 155, 100, 0.43)"></use><use xlink:href="#SvgjsG1427" transform="translate(304, 304) scale(2)" fill="rgba(244, 155, 100, 0.43)"></use><use xlink:href="#SvgjsG1425" transform="translate(304, 342) scale(2)" fill="rgba(244, 155, 100, 0.43)"></use><use xlink:href="#SvgjsG1427" transform="translate(342, 0) scale(2)" fill="rgba(244, 155, 100, 0.43)"></use><use xlink:href="#SvgjsG1418" transform="translate(342, 38) scale(2)" fill="rgba(244, 155, 100, 0.43)"></use><use xlink:href="#SvgjsG1422" transform="translate(342, 76) scale(2)" fill="rgba(244, 155, 100, 0.43)"></use><use xlink:href="#SvgjsG1428" transform="translate(342, 114) scale(2)" fill="rgba(244, 155, 100, 0.43)"></use><use xlink:href="#SvgjsG1422" transform="translate(342, 152) scale(2)" fill="rgba(244, 155, 100, 0.43)"></use><use xlink:href="#SvgjsG1426" transform="translate(342, 190) scale(2)" fill="rgba(244, 155, 100, 0.43)"></use><use xlink:href="#SvgjsG1426" transform="translate(342, 228) scale(2)" fill="rgba(244, 155, 100, 0.43)"></use><use xlink:href="#SvgjsG1421" transform="translate(342, 266) scale(2)" fill="rgba(244, 155, 100, 0.43)"></use><use xlink:href="#SvgjsG1418" transform="translate(342, 304) scale(2)" fill="rgba(244, 155, 100, 0.43)"></use><use xlink:href="#SvgjsG1423" transform="translate(342, 342) scale(2)" fill="rgba(244, 155, 100, 0.43)"></use></g></defs></svg>